<svg xmlns="http://www.w3.org/2000/svg" viewBox="0 0 1000 1000" width="1000" height="1000">
  <!-- outer black ring -->
  <circle cx="500" cy="500" r="492" fill="#0a0a0a"/>
  <!-- blue ring -->
  <circle cx="500" cy="500" r="480" fill="#1f8fe0"/>
  <!-- inner white disc -->
  <circle cx="500" cy="500" r="368" fill="#ffffff" stroke="#0a0a0a" stroke-width="6"/>
  <circle cx="500" cy="500" r="480" fill="none" stroke="#0a0a0a" stroke-width="6"/>

  <!-- curved ring text -->
  <g>
<text x="102.66" y="380.23" transform="rotate(-73.22 102.66 380.23)" text-anchor="middle" font-family="Arial, Helvetica, sans-serif" font-weight="700" font-size="52" fill="#0a0a0a">L</text>
<text x="114.75" y="345.71" transform="rotate(-68.17 114.75 345.71)" text-anchor="middle" font-family="Arial, Helvetica, sans-serif" font-weight="700" font-size="52" fill="#0a0a0a">E</text>
<text x="129.82" y="312.40" transform="rotate(-63.12 129.82 312.40)" text-anchor="middle" font-family="Arial, Helvetica, sans-serif" font-weight="700" font-size="52" fill="#0a0a0a">M</text>
<text x="147.77" y="280.54" transform="rotate(-58.07 147.77 280.54)" text-anchor="middle" font-family="Arial, Helvetica, sans-serif" font-weight="700" font-size="52" fill="#0a0a0a">B</text>
<text x="168.46" y="250.39" transform="rotate(-53.02 168.46 250.39)" text-anchor="middle" font-family="Arial, Helvetica, sans-serif" font-weight="700" font-size="52" fill="#0a0a0a">A</text>
<text x="191.72" y="222.18" transform="rotate(-47.97 191.72 222.18)" text-anchor="middle" font-family="Arial, Helvetica, sans-serif" font-weight="700" font-size="52" fill="#0a0a0a">G</text>
<text x="217.37" y="196.12" transform="rotate(-42.92 217.37 196.12)" text-anchor="middle" font-family="Arial, Helvetica, sans-serif" font-weight="700" font-size="52" fill="#0a0a0a">A</text>
<text x="245.21" y="172.42" transform="rotate(-37.87 245.21 172.42)" text-anchor="middle" font-family="Arial, Helvetica, sans-serif" font-weight="700" font-size="52" fill="#0a0a0a"> </text>
<text x="275.04" y="151.26" transform="rotate(-32.82 275.04 151.26)" text-anchor="middle" font-family="Arial, Helvetica, sans-serif" font-weight="700" font-size="52" fill="#0a0a0a">P</text>
<text x="306.61" y="132.81" transform="rotate(-27.77 306.61 132.81)" text-anchor="middle" font-family="Arial, Helvetica, sans-serif" font-weight="700" font-size="52" fill="#0a0a0a">U</text>
<text x="339.68" y="117.22" transform="rotate(-22.72 339.68 117.22)" text-anchor="middle" font-family="Arial, Helvetica, sans-serif" font-weight="700" font-size="52" fill="#0a0a0a">S</text>
<text x="374.00" y="104.59" transform="rotate(-17.67 374.00 104.59)" text-anchor="middle" font-family="Arial, Helvetica, sans-serif" font-weight="700" font-size="52" fill="#0a0a0a">A</text>
<text x="409.29" y="95.03" transform="rotate(-12.63 409.29 95.03)" text-anchor="middle" font-family="Arial, Helvetica, sans-serif" font-weight="700" font-size="52" fill="#0a0a0a">T</text>
<text x="445.29" y="88.62" transform="rotate(-7.58 445.29 88.62)" text-anchor="middle" font-family="Arial, Helvetica, sans-serif" font-weight="700" font-size="52" fill="#0a0a0a"> </text>
<text x="481.72" y="85.40" transform="rotate(-2.52 481.72 85.40)" text-anchor="middle" font-family="Arial, Helvetica, sans-serif" font-weight="700" font-size="52" fill="#0a0a0a">K</text>
<text x="518.28" y="85.40" transform="rotate(2.53 518.28 85.40)" text-anchor="middle" font-family="Arial, Helvetica, sans-serif" font-weight="700" font-size="52" fill="#0a0a0a">A</text>
<text x="554.71" y="88.62" transform="rotate(7.58 554.71 88.62)" text-anchor="middle" font-family="Arial, Helvetica, sans-serif" font-weight="700" font-size="52" fill="#0a0a0a">J</text>
<text x="590.71" y="95.03" transform="rotate(12.63 590.71 95.03)" text-anchor="middle" font-family="Arial, Helvetica, sans-serif" font-weight="700" font-size="52" fill="#0a0a0a">I</text>
<text x="626.00" y="104.59" transform="rotate(17.67 626.00 104.59)" text-anchor="middle" font-family="Arial, Helvetica, sans-serif" font-weight="700" font-size="52" fill="#0a0a0a">A</text>
<text x="660.32" y="117.22" transform="rotate(22.73 660.32 117.22)" text-anchor="middle" font-family="Arial, Helvetica, sans-serif" font-weight="700" font-size="52" fill="#0a0a0a">N</text>
<text x="693.39" y="132.81" transform="rotate(27.78 693.39 132.81)" text-anchor="middle" font-family="Arial, Helvetica, sans-serif" font-weight="700" font-size="52" fill="#0a0a0a"> </text>
<text x="724.96" y="151.26" transform="rotate(32.83 724.96 151.26)" text-anchor="middle" font-family="Arial, Helvetica, sans-serif" font-weight="700" font-size="52" fill="#0a0a0a">M</text>
<text x="754.79" y="172.42" transform="rotate(37.88 754.79 172.42)" text-anchor="middle" font-family="Arial, Helvetica, sans-serif" font-weight="700" font-size="52" fill="#0a0a0a">A</text>
<text x="782.63" y="196.12" transform="rotate(42.92 782.63 196.12)" text-anchor="middle" font-family="Arial, Helvetica, sans-serif" font-weight="700" font-size="52" fill="#0a0a0a">N</text>
<text x="808.28" y="222.18" transform="rotate(47.97 808.28 222.18)" text-anchor="middle" font-family="Arial, Helvetica, sans-serif" font-weight="700" font-size="52" fill="#0a0a0a">A</text>
<text x="831.54" y="250.39" transform="rotate(53.03 831.54 250.39)" text-anchor="middle" font-family="Arial, Helvetica, sans-serif" font-weight="700" font-size="52" fill="#0a0a0a">J</text>
<text x="852.23" y="280.54" transform="rotate(58.07 852.23 280.54)" text-anchor="middle" font-family="Arial, Helvetica, sans-serif" font-weight="700" font-size="52" fill="#0a0a0a">E</text>
<text x="870.18" y="312.40" transform="rotate(63.13 870.18 312.40)" text-anchor="middle" font-family="Arial, Helvetica, sans-serif" font-weight="700" font-size="52" fill="#0a0a0a">M</text>
<text x="885.25" y="345.71" transform="rotate(68.18 885.25 345.71)" text-anchor="middle" font-family="Arial, Helvetica, sans-serif" font-weight="700" font-size="52" fill="#0a0a0a">E</text>
<text x="897.34" y="380.23" transform="rotate(73.22 897.34 380.23)" text-anchor="middle" font-family="Arial, Helvetica, sans-serif" font-weight="700" font-size="52" fill="#0a0a0a">N</text>

  </g>
  <g>
<text x="265.54" y="842.42" transform="rotate(34.40 265.54 842.42)" text-anchor="middle" font-family="Arial, Helvetica, sans-serif" font-weight="700" font-size="52" fill="#0a0a0a">I</text>
<text x="319.38" y="873.63" transform="rotate(25.80 319.38 873.63)" text-anchor="middle" font-family="Arial, Helvetica, sans-serif" font-weight="700" font-size="52" fill="#0a0a0a">N</text>
<text x="377.28" y="896.44" transform="rotate(17.20 377.28 896.44)" text-anchor="middle" font-family="Arial, Helvetica, sans-serif" font-weight="700" font-size="52" fill="#0a0a0a">D</text>
<text x="437.94" y="910.33" transform="rotate(8.60 437.94 910.33)" text-anchor="middle" font-family="Arial, Helvetica, sans-serif" font-weight="700" font-size="52" fill="#0a0a0a">O</text>
<text x="500.00" y="915.00" transform="rotate(0.00 500.00 915.00)" text-anchor="middle" font-family="Arial, Helvetica, sans-serif" font-weight="700" font-size="52" fill="#0a0a0a">N</text>
<text x="562.06" y="910.33" transform="rotate(-8.60 562.06 910.33)" text-anchor="middle" font-family="Arial, Helvetica, sans-serif" font-weight="700" font-size="52" fill="#0a0a0a">E</text>
<text x="622.72" y="896.44" transform="rotate(-17.20 622.72 896.44)" text-anchor="middle" font-family="Arial, Helvetica, sans-serif" font-weight="700" font-size="52" fill="#0a0a0a">S</text>
<text x="680.62" y="873.63" transform="rotate(-25.80 680.62 873.63)" text-anchor="middle" font-family="Arial, Helvetica, sans-serif" font-weight="700" font-size="52" fill="#0a0a0a">I</text>
<text x="734.46" y="842.42" transform="rotate(-34.40 734.46 842.42)" text-anchor="middle" font-family="Arial, Helvetica, sans-serif" font-weight="700" font-size="52" fill="#0a0a0a">A</text>

  </g>

  <!-- stars flanking bottom text -->
  <g transform="translate(232,742) scale(2.1)" fill="#0a0a0a">
    <path d="M8 0 L9.8 5.5 L15.7 5.5 L10.9 9 L12.7 14.5 L8 11 L3.3 14.5 L5.1 9 L0.3 5.5 L6.2 5.5 Z"/>
  </g>
  <g transform="translate(753,742) scale(2.1)" fill="#0a0a0a">
    <path d="M8 0 L9.8 5.5 L15.7 5.5 L10.9 9 L12.7 14.5 L8 11 L3.3 14.5 L5.1 9 L0.3 5.5 L6.2 5.5 Z"/>
  </g>

  <!-- wheat sprig (left, yellow) -->
  <g stroke="#e8c02a" stroke-width="6" fill="#f2c418" stroke-linejoin="round">
    <path d="M498 590 C 440 578, 378 542, 348 470" fill="none"/>
    <ellipse cx="362" cy="452" rx="24" ry="12" transform="rotate(-35 362 452)"/>
    <ellipse cx="348" cy="417" rx="24" ry="12" transform="rotate(-35 348 417)"/>
    <ellipse cx="337" cy="381" rx="24" ry="12" transform="rotate(-35 337 381)"/>
    <ellipse cx="329" cy="344" rx="24" ry="12" transform="rotate(-35 329 344)"/>
    <ellipse cx="324" cy="307" rx="22" ry="11" transform="rotate(-35 324 307)"/>
    <ellipse cx="382" cy="442" rx="24" ry="12" transform="rotate(35 382 442)"/>
    <ellipse cx="373" cy="405" rx="24" ry="12" transform="rotate(35 373 405)"/>
    <ellipse cx="367" cy="368" rx="24" ry="12" transform="rotate(35 367 368)"/>
    <ellipse cx="364" cy="330" rx="22" ry="11" transform="rotate(35 364 330)"/>
    <ellipse cx="343" cy="288" rx="18" ry="9"/>
  </g>

  <!-- open book (center) -->
  <g>
    <path d="M500 372 C 474 348, 426 336, 378 340 L 378 510 C 426 506, 474 518, 500 542 Z" fill="#1f6fd6" stroke="#0a0a0a" stroke-width="5"/>
    <path d="M500 372 C 526 348, 574 336, 622 340 L 622 510 C 574 506, 526 518, 500 542 Z" fill="#1f6fd6" stroke="#0a0a0a" stroke-width="5"/>
    <path d="M378 340 C 362 344, 351 351, 346 360 L 346 530 C 351 522, 362 515, 378 510 Z" fill="#ffffff" stroke="#0a0a0a" stroke-width="5"/>
    <path d="M622 340 C 638 344, 649 351, 654 360 L 654 530 C 649 522, 638 515, 622 510 Z" fill="#ffffff" stroke="#0a0a0a" stroke-width="5"/>
    <path d="M500 372 L500 542" stroke="#0a0a0a" stroke-width="4" fill="none"/>
  </g>

  <!-- LPKMI wordmark -->
  <text x="500" y="672" text-anchor="middle" font-family="Georgia, 'Times New Roman', serif" font-weight="700" font-size="90" fill="#0a0a0a">LPKMI</text>

  <!-- green leafy branch (right) with white flower spikes -->
  <g stroke="#2f9e44" stroke-width="6" fill="#2f9e44" stroke-linejoin="round">
    <path d="M502 590 C 560 578, 622 542, 652 470" fill="none"/>
    <ellipse cx="638" cy="452" rx="22" ry="12" transform="rotate(35 638 452)"/>
    <ellipse cx="652" cy="417" rx="22" ry="12" transform="rotate(35 652 417)"/>
    <ellipse cx="663" cy="381" rx="20" ry="11" transform="rotate(35 663 381)"/>
    <ellipse cx="618" cy="442" rx="22" ry="12" transform="rotate(-35 618 442)"/>
    <ellipse cx="627" cy="405" rx="20" ry="11" transform="rotate(-35 627 405)"/>
  </g>
  <g stroke="#2f9e44" stroke-width="6" fill="none">
    <path d="M667 385 C 662 350, 660 305, 666 268"/>
  </g>
  <g fill="#ffffff" stroke="#3fae52" stroke-width="3">
    <path d="M666 268 l13 9 -13 9 -13 -9Z"/>
    <path d="M663 292 l13 9 -13 9 -13 -9Z"/>
    <path d="M661 316 l13 9 -13 9 -13 -9Z"/>
    <path d="M660 340 l13 9 -13 9 -13 -9Z"/>
    <path d="M661 363 l12 8 -12 8 -12 -8Z"/>
  </g>
</svg>
